<mxfile host="app.diagrams.net" modified="2021-10-21T12:00:00.441Z" agent="5.0 (Macintosh; Intel Mac OS X 10_15_6) AppleWebKit/605.1.15 (KHTML, like Gecko) Version/14.0.2 Safari/605.1.15" etag="LH7ZkJFTjv1MNVhYuyAw" version="15.5.8" type="github">
  <diagram id="27NDo_zjwCtd7umy8Yeo" name="Page-1">
    <mxGraphModel dx="2300" dy="988" grid="1" gridSize="10" guides="1" tooltips="1" connect="1" arrows="1" fold="1" page="1" pageScale="1" pageWidth="827" pageHeight="1169" math="0" shadow="0">
      <root>
        <mxCell id="0" />
        <mxCell id="1" parent="0" />
        <mxCell id="4zsLI_aO5ENCOFRUtOQV-5" value="" style="edgeStyle=orthogonalEdgeStyle;rounded=0;orthogonalLoop=1;jettySize=auto;html=1;" edge="1" parent="1" source="4zsLI_aO5ENCOFRUtOQV-3" target="4zsLI_aO5ENCOFRUtOQV-4">
          <mxGeometry relative="1" as="geometry" />
        </mxCell>
        <mxCell id="4zsLI_aO5ENCOFRUtOQV-3" value="camera" style="rounded=0;whiteSpace=wrap;html=1;" vertex="1" parent="1">
          <mxGeometry x="-120" y="360" width="120" height="60" as="geometry" />
        </mxCell>
        <mxCell id="4zsLI_aO5ENCOFRUtOQV-7" value="" style="edgeStyle=orthogonalEdgeStyle;rounded=0;orthogonalLoop=1;jettySize=auto;html=1;" edge="1" parent="1" source="4zsLI_aO5ENCOFRUtOQV-4" target="4zsLI_aO5ENCOFRUtOQV-6">
          <mxGeometry relative="1" as="geometry" />
        </mxCell>
        <mxCell id="4zsLI_aO5ENCOFRUtOQV-9" value="" style="edgeStyle=orthogonalEdgeStyle;rounded=0;orthogonalLoop=1;jettySize=auto;html=1;" edge="1" parent="1" source="4zsLI_aO5ENCOFRUtOQV-4" target="4zsLI_aO5ENCOFRUtOQV-8">
          <mxGeometry relative="1" as="geometry" />
        </mxCell>
        <mxCell id="4zsLI_aO5ENCOFRUtOQV-19" style="edgeStyle=orthogonalEdgeStyle;rounded=0;orthogonalLoop=1;jettySize=auto;html=1;entryX=0;entryY=0.5;entryDx=0;entryDy=0;" edge="1" parent="1" source="4zsLI_aO5ENCOFRUtOQV-4" target="4zsLI_aO5ENCOFRUtOQV-18">
          <mxGeometry relative="1" as="geometry" />
        </mxCell>
        <mxCell id="4zsLI_aO5ENCOFRUtOQV-4" value="Pixelbuffer" style="whiteSpace=wrap;html=1;rounded=0;" vertex="1" parent="1">
          <mxGeometry x="80" y="360" width="120" height="60" as="geometry" />
        </mxCell>
        <mxCell id="4zsLI_aO5ENCOFRUtOQV-12" value="检测数据" style="edgeStyle=orthogonalEdgeStyle;rounded=0;orthogonalLoop=1;jettySize=auto;html=1;" edge="1" parent="1" source="4zsLI_aO5ENCOFRUtOQV-6" target="4zsLI_aO5ENCOFRUtOQV-10">
          <mxGeometry relative="1" as="geometry" />
        </mxCell>
        <mxCell id="4zsLI_aO5ENCOFRUtOQV-6" value="AI 检测（人脸）" style="whiteSpace=wrap;html=1;rounded=0;" vertex="1" parent="1">
          <mxGeometry x="280" y="300" width="120" height="60" as="geometry" />
        </mxCell>
        <mxCell id="4zsLI_aO5ENCOFRUtOQV-11" value="" style="edgeStyle=orthogonalEdgeStyle;rounded=0;orthogonalLoop=1;jettySize=auto;html=1;" edge="1" parent="1" source="4zsLI_aO5ENCOFRUtOQV-8" target="4zsLI_aO5ENCOFRUtOQV-10">
          <mxGeometry relative="1" as="geometry" />
        </mxCell>
        <mxCell id="4zsLI_aO5ENCOFRUtOQV-8" value="美颜" style="whiteSpace=wrap;html=1;rounded=0;" vertex="1" parent="1">
          <mxGeometry x="280" y="390" width="120" height="60" as="geometry" />
        </mxCell>
        <mxCell id="4zsLI_aO5ENCOFRUtOQV-14" value="" style="edgeStyle=orthogonalEdgeStyle;rounded=0;orthogonalLoop=1;jettySize=auto;html=1;" edge="1" parent="1" source="4zsLI_aO5ENCOFRUtOQV-10" target="4zsLI_aO5ENCOFRUtOQV-13">
          <mxGeometry relative="1" as="geometry" />
        </mxCell>
        <mxCell id="4zsLI_aO5ENCOFRUtOQV-10" value="廋脸" style="whiteSpace=wrap;html=1;rounded=0;" vertex="1" parent="1">
          <mxGeometry x="480" y="390" width="120" height="60" as="geometry" />
        </mxCell>
        <mxCell id="4zsLI_aO5ENCOFRUtOQV-27" value="" style="edgeStyle=orthogonalEdgeStyle;rounded=0;orthogonalLoop=1;jettySize=auto;html=1;" edge="1" parent="1" source="4zsLI_aO5ENCOFRUtOQV-13" target="4zsLI_aO5ENCOFRUtOQV-26">
          <mxGeometry relative="1" as="geometry" />
        </mxCell>
        <mxCell id="4zsLI_aO5ENCOFRUtOQV-13" value="滤镜" style="whiteSpace=wrap;html=1;rounded=0;" vertex="1" parent="1">
          <mxGeometry x="680" y="390" width="120" height="60" as="geometry" />
        </mxCell>
        <mxCell id="4zsLI_aO5ENCOFRUtOQV-23" style="edgeStyle=orthogonalEdgeStyle;rounded=0;orthogonalLoop=1;jettySize=auto;html=1;entryX=0;entryY=0.5;entryDx=0;entryDy=0;" edge="1" parent="1" source="4zsLI_aO5ENCOFRUtOQV-15" target="4zsLI_aO5ENCOFRUtOQV-22">
          <mxGeometry relative="1" as="geometry" />
        </mxCell>
        <mxCell id="4zsLI_aO5ENCOFRUtOQV-25" style="edgeStyle=orthogonalEdgeStyle;rounded=0;orthogonalLoop=1;jettySize=auto;html=1;entryX=0;entryY=0.5;entryDx=0;entryDy=0;" edge="1" parent="1" source="4zsLI_aO5ENCOFRUtOQV-15" target="4zsLI_aO5ENCOFRUtOQV-24">
          <mxGeometry relative="1" as="geometry" />
        </mxCell>
        <mxCell id="4zsLI_aO5ENCOFRUtOQV-15" value="最后一级特效" style="rounded=0;whiteSpace=wrap;html=1;" vertex="1" parent="1">
          <mxGeometry x="1040" y="390" width="120" height="60" as="geometry" />
        </mxCell>
        <mxCell id="4zsLI_aO5ENCOFRUtOQV-20" style="edgeStyle=orthogonalEdgeStyle;rounded=0;orthogonalLoop=1;jettySize=auto;html=1;" edge="1" parent="1" source="4zsLI_aO5ENCOFRUtOQV-18" target="4zsLI_aO5ENCOFRUtOQV-13">
          <mxGeometry relative="1" as="geometry" />
        </mxCell>
        <mxCell id="4zsLI_aO5ENCOFRUtOQV-18" value="抖音美颜瘦脸（AI检测抖音内部完成）" style="rounded=0;whiteSpace=wrap;html=1;" vertex="1" parent="1">
          <mxGeometry x="280" y="510" width="120" height="60" as="geometry" />
        </mxCell>
        <mxCell id="4zsLI_aO5ENCOFRUtOQV-22" value="编码输出、推流" style="rounded=0;whiteSpace=wrap;html=1;" vertex="1" parent="1">
          <mxGeometry x="1230" y="340" width="120" height="60" as="geometry" />
        </mxCell>
        <mxCell id="4zsLI_aO5ENCOFRUtOQV-24" value="本地显示" style="rounded=0;whiteSpace=wrap;html=1;" vertex="1" parent="1">
          <mxGeometry x="1230" y="460" width="120" height="60" as="geometry" />
        </mxCell>
        <mxCell id="4zsLI_aO5ENCOFRUtOQV-28" value="" style="edgeStyle=orthogonalEdgeStyle;rounded=0;orthogonalLoop=1;jettySize=auto;html=1;" edge="1" parent="1" source="4zsLI_aO5ENCOFRUtOQV-26" target="4zsLI_aO5ENCOFRUtOQV-15">
          <mxGeometry relative="1" as="geometry" />
        </mxCell>
        <mxCell id="4zsLI_aO5ENCOFRUtOQV-54" value="省略" style="edgeLabel;html=1;align=center;verticalAlign=middle;resizable=0;points=[];" vertex="1" connectable="0" parent="4zsLI_aO5ENCOFRUtOQV-28">
          <mxGeometry x="-0.0857" y="3" relative="1" as="geometry">
            <mxPoint as="offset" />
          </mxGeometry>
        </mxCell>
        <mxCell id="4zsLI_aO5ENCOFRUtOQV-26" value="贴脸特效" style="rounded=0;whiteSpace=wrap;html=1;" vertex="1" parent="1">
          <mxGeometry x="850" y="390" width="120" height="60" as="geometry" />
        </mxCell>
        <mxCell id="4zsLI_aO5ENCOFRUtOQV-32" style="edgeStyle=orthogonalEdgeStyle;rounded=0;orthogonalLoop=1;jettySize=auto;html=1;entryX=0;entryY=0.5;entryDx=0;entryDy=0;" edge="1" parent="1" source="4zsLI_aO5ENCOFRUtOQV-29" target="4zsLI_aO5ENCOFRUtOQV-30">
          <mxGeometry relative="1" as="geometry">
            <mxPoint x="40" y="730" as="targetPoint" />
            <Array as="points">
              <mxPoint x="30" y="800" />
              <mxPoint x="30" y="730" />
            </Array>
          </mxGeometry>
        </mxCell>
        <mxCell id="4zsLI_aO5ENCOFRUtOQV-33" style="edgeStyle=orthogonalEdgeStyle;rounded=0;orthogonalLoop=1;jettySize=auto;html=1;" edge="1" parent="1" source="4zsLI_aO5ENCOFRUtOQV-29" target="4zsLI_aO5ENCOFRUtOQV-31">
          <mxGeometry relative="1" as="geometry" />
        </mxCell>
        <mxCell id="4zsLI_aO5ENCOFRUtOQV-29" value="贴脸特效" style="rounded=0;whiteSpace=wrap;html=1;" vertex="1" parent="1">
          <mxGeometry x="-120" y="770" width="120" height="60" as="geometry" />
        </mxCell>
        <mxCell id="4zsLI_aO5ENCOFRUtOQV-36" style="edgeStyle=orthogonalEdgeStyle;rounded=0;orthogonalLoop=1;jettySize=auto;html=1;entryX=0;entryY=0.5;entryDx=0;entryDy=0;" edge="1" parent="1" source="4zsLI_aO5ENCOFRUtOQV-30" target="4zsLI_aO5ENCOFRUtOQV-34">
          <mxGeometry relative="1" as="geometry" />
        </mxCell>
        <mxCell id="4zsLI_aO5ENCOFRUtOQV-37" style="edgeStyle=orthogonalEdgeStyle;rounded=0;orthogonalLoop=1;jettySize=auto;html=1;" edge="1" parent="1" source="4zsLI_aO5ENCOFRUtOQV-30" target="4zsLI_aO5ENCOFRUtOQV-35">
          <mxGeometry relative="1" as="geometry" />
        </mxCell>
        <mxCell id="4zsLI_aO5ENCOFRUtOQV-30" value="2D" style="rounded=0;whiteSpace=wrap;html=1;" vertex="1" parent="1">
          <mxGeometry x="60" y="700" width="120" height="60" as="geometry" />
        </mxCell>
        <mxCell id="4zsLI_aO5ENCOFRUtOQV-44" style="edgeStyle=orthogonalEdgeStyle;rounded=0;orthogonalLoop=1;jettySize=auto;html=1;entryX=0;entryY=0.5;entryDx=0;entryDy=0;" edge="1" parent="1" source="4zsLI_aO5ENCOFRUtOQV-31" target="4zsLI_aO5ENCOFRUtOQV-43">
          <mxGeometry relative="1" as="geometry" />
        </mxCell>
        <mxCell id="4zsLI_aO5ENCOFRUtOQV-46" style="edgeStyle=orthogonalEdgeStyle;rounded=0;orthogonalLoop=1;jettySize=auto;html=1;entryX=0;entryY=0.5;entryDx=0;entryDy=0;" edge="1" parent="1" source="4zsLI_aO5ENCOFRUtOQV-31" target="4zsLI_aO5ENCOFRUtOQV-45">
          <mxGeometry relative="1" as="geometry" />
        </mxCell>
        <mxCell id="4zsLI_aO5ENCOFRUtOQV-31" value="3D" style="rounded=0;whiteSpace=wrap;html=1;" vertex="1" parent="1">
          <mxGeometry x="60" y="820" width="120" height="60" as="geometry" />
        </mxCell>
        <mxCell id="4zsLI_aO5ENCOFRUtOQV-39" style="edgeStyle=orthogonalEdgeStyle;rounded=0;orthogonalLoop=1;jettySize=auto;html=1;entryX=0;entryY=0.5;entryDx=0;entryDy=0;" edge="1" parent="1" source="4zsLI_aO5ENCOFRUtOQV-34" target="4zsLI_aO5ENCOFRUtOQV-38">
          <mxGeometry relative="1" as="geometry" />
        </mxCell>
        <mxCell id="4zsLI_aO5ENCOFRUtOQV-34" value="图片（锚点、缩放比例）" style="rounded=0;whiteSpace=wrap;html=1;" vertex="1" parent="1">
          <mxGeometry x="240" y="630" width="120" height="60" as="geometry" />
        </mxCell>
        <mxCell id="4zsLI_aO5ENCOFRUtOQV-40" style="edgeStyle=orthogonalEdgeStyle;rounded=0;orthogonalLoop=1;jettySize=auto;html=1;entryX=0;entryY=0.5;entryDx=0;entryDy=0;" edge="1" parent="1" source="4zsLI_aO5ENCOFRUtOQV-35" target="4zsLI_aO5ENCOFRUtOQV-38">
          <mxGeometry relative="1" as="geometry" />
        </mxCell>
        <mxCell id="4zsLI_aO5ENCOFRUtOQV-35" value="AI检测人脸关键点" style="rounded=0;whiteSpace=wrap;html=1;" vertex="1" parent="1">
          <mxGeometry x="240" y="720" width="120" height="60" as="geometry" />
        </mxCell>
        <mxCell id="4zsLI_aO5ENCOFRUtOQV-42" style="edgeStyle=orthogonalEdgeStyle;rounded=0;orthogonalLoop=1;jettySize=auto;html=1;entryX=0;entryY=0.5;entryDx=0;entryDy=0;" edge="1" parent="1" source="4zsLI_aO5ENCOFRUtOQV-38" target="4zsLI_aO5ENCOFRUtOQV-41">
          <mxGeometry relative="1" as="geometry" />
        </mxCell>
        <mxCell id="4zsLI_aO5ENCOFRUtOQV-38" value="1:对准（图片的锚点和人脸锚点对齐（目前选的鼻尖位置）&lt;br&gt;2: 两眼间的距离配合缩放比（这个由设计师根据标准脸大小和图片大小决定缩放比）决定图片最终渲染大小&lt;br&gt;3:两眼间的向量决定图片绕Z轴旋转的角度" style="rounded=0;whiteSpace=wrap;html=1;" vertex="1" parent="1">
          <mxGeometry x="440" y="670" width="350" height="60" as="geometry" />
        </mxCell>
        <mxCell id="4zsLI_aO5ENCOFRUtOQV-41" value="最终渲染效果" style="rounded=0;whiteSpace=wrap;html=1;" vertex="1" parent="1">
          <mxGeometry x="857" y="670" width="120" height="60" as="geometry" />
        </mxCell>
        <mxCell id="4zsLI_aO5ENCOFRUtOQV-48" style="edgeStyle=orthogonalEdgeStyle;rounded=0;orthogonalLoop=1;jettySize=auto;html=1;entryX=0;entryY=0.5;entryDx=0;entryDy=0;" edge="1" parent="1" source="4zsLI_aO5ENCOFRUtOQV-43" target="4zsLI_aO5ENCOFRUtOQV-47">
          <mxGeometry relative="1" as="geometry" />
        </mxCell>
        <mxCell id="4zsLI_aO5ENCOFRUtOQV-43" value="AI检测相机投影矩阵、物体世界空间矩阵" style="rounded=0;whiteSpace=wrap;html=1;" vertex="1" parent="1">
          <mxGeometry x="250" y="810" width="120" height="60" as="geometry" />
        </mxCell>
        <mxCell id="4zsLI_aO5ENCOFRUtOQV-49" style="edgeStyle=orthogonalEdgeStyle;rounded=0;orthogonalLoop=1;jettySize=auto;html=1;" edge="1" parent="1" source="4zsLI_aO5ENCOFRUtOQV-45" target="4zsLI_aO5ENCOFRUtOQV-47">
          <mxGeometry relative="1" as="geometry" />
        </mxCell>
        <mxCell id="4zsLI_aO5ENCOFRUtOQV-45" value="设计师根据标准模型匹配的3D模型+纹理" style="rounded=0;whiteSpace=wrap;html=1;" vertex="1" parent="1">
          <mxGeometry x="250" y="910" width="120" height="60" as="geometry" />
        </mxCell>
        <mxCell id="4zsLI_aO5ENCOFRUtOQV-53" style="edgeStyle=orthogonalEdgeStyle;rounded=0;orthogonalLoop=1;jettySize=auto;html=1;" edge="1" parent="1" source="4zsLI_aO5ENCOFRUtOQV-47" target="4zsLI_aO5ENCOFRUtOQV-52">
          <mxGeometry relative="1" as="geometry" />
        </mxCell>
        <mxCell id="4zsLI_aO5ENCOFRUtOQV-47" value="1:建立3D空间的Camera，检测的投影矩阵替换原有的投影矩阵；&lt;br&gt;2：物体空间矩阵由检测的空间矩阵替换；&lt;br&gt;注意：整个过程理解为相机未动" style="rounded=0;whiteSpace=wrap;html=1;" vertex="1" parent="1">
          <mxGeometry x="440" y="870" width="320" height="60" as="geometry" />
        </mxCell>
        <mxCell id="4zsLI_aO5ENCOFRUtOQV-52" value="&lt;span&gt;最终渲染效果&lt;/span&gt;" style="rounded=0;whiteSpace=wrap;html=1;" vertex="1" parent="1">
          <mxGeometry x="860" y="870" width="120" height="60" as="geometry" />
        </mxCell>
        <mxCell id="4zsLI_aO5ENCOFRUtOQV-58" style="edgeStyle=orthogonalEdgeStyle;rounded=0;orthogonalLoop=1;jettySize=auto;html=1;entryX=0;entryY=0.5;entryDx=0;entryDy=0;" edge="1" parent="1" source="4zsLI_aO5ENCOFRUtOQV-55" target="4zsLI_aO5ENCOFRUtOQV-56">
          <mxGeometry relative="1" as="geometry" />
        </mxCell>
        <mxCell id="4zsLI_aO5ENCOFRUtOQV-59" style="edgeStyle=orthogonalEdgeStyle;rounded=0;orthogonalLoop=1;jettySize=auto;html=1;entryX=0;entryY=0.5;entryDx=0;entryDy=0;" edge="1" parent="1" source="4zsLI_aO5ENCOFRUtOQV-55" target="4zsLI_aO5ENCOFRUtOQV-57">
          <mxGeometry relative="1" as="geometry" />
        </mxCell>
        <mxCell id="4zsLI_aO5ENCOFRUtOQV-55" value="AI检测（输入rgba，来源pixelbuffer）" style="rounded=0;whiteSpace=wrap;html=1;" vertex="1" parent="1">
          <mxGeometry x="-130" y="1109" width="120" height="60" as="geometry" />
        </mxCell>
        <mxCell id="4zsLI_aO5ENCOFRUtOQV-62" style="edgeStyle=orthogonalEdgeStyle;rounded=0;orthogonalLoop=1;jettySize=auto;html=1;entryX=0;entryY=0.5;entryDx=0;entryDy=0;" edge="1" parent="1" source="4zsLI_aO5ENCOFRUtOQV-56" target="4zsLI_aO5ENCOFRUtOQV-60">
          <mxGeometry relative="1" as="geometry" />
        </mxCell>
        <mxCell id="4zsLI_aO5ENCOFRUtOQV-56" value="CPU检测" style="rounded=0;whiteSpace=wrap;html=1;" vertex="1" parent="1">
          <mxGeometry x="60" y="1040" width="120" height="60" as="geometry" />
        </mxCell>
        <mxCell id="4zsLI_aO5ENCOFRUtOQV-72" style="edgeStyle=orthogonalEdgeStyle;rounded=0;orthogonalLoop=1;jettySize=auto;html=1;entryX=0;entryY=0.5;entryDx=0;entryDy=0;" edge="1" parent="1" source="4zsLI_aO5ENCOFRUtOQV-57" target="4zsLI_aO5ENCOFRUtOQV-71">
          <mxGeometry relative="1" as="geometry" />
        </mxCell>
        <mxCell id="4zsLI_aO5ENCOFRUtOQV-57" value="GPU检测" style="rounded=0;whiteSpace=wrap;html=1;" vertex="1" parent="1">
          <mxGeometry x="60" y="1180" width="120" height="60" as="geometry" />
        </mxCell>
        <mxCell id="4zsLI_aO5ENCOFRUtOQV-63" style="edgeStyle=orthogonalEdgeStyle;rounded=0;orthogonalLoop=1;jettySize=auto;html=1;" edge="1" parent="1" source="4zsLI_aO5ENCOFRUtOQV-60" target="4zsLI_aO5ENCOFRUtOQV-61">
          <mxGeometry relative="1" as="geometry" />
        </mxCell>
        <mxCell id="4zsLI_aO5ENCOFRUtOQV-60" value="缩放/旋转（软缩放（libyuv就可以，硬缩放GPU缩放））" style="rounded=0;whiteSpace=wrap;html=1;" vertex="1" parent="1">
          <mxGeometry x="240" y="1040" width="120" height="60" as="geometry" />
        </mxCell>
        <mxCell id="4zsLI_aO5ENCOFRUtOQV-66" style="edgeStyle=orthogonalEdgeStyle;rounded=0;orthogonalLoop=1;jettySize=auto;html=1;entryX=0;entryY=0.5;entryDx=0;entryDy=0;" edge="1" parent="1" source="4zsLI_aO5ENCOFRUtOQV-61" target="4zsLI_aO5ENCOFRUtOQV-64">
          <mxGeometry relative="1" as="geometry" />
        </mxCell>
        <mxCell id="4zsLI_aO5ENCOFRUtOQV-67" style="edgeStyle=orthogonalEdgeStyle;rounded=0;orthogonalLoop=1;jettySize=auto;html=1;entryX=0;entryY=0.75;entryDx=0;entryDy=0;" edge="1" parent="1" source="4zsLI_aO5ENCOFRUtOQV-61" target="4zsLI_aO5ENCOFRUtOQV-65">
          <mxGeometry relative="1" as="geometry" />
        </mxCell>
        <mxCell id="4zsLI_aO5ENCOFRUtOQV-61" value="送入检测接口" style="rounded=0;whiteSpace=wrap;html=1;" vertex="1" parent="1">
          <mxGeometry x="440" y="1040" width="120" height="60" as="geometry" />
        </mxCell>
        <mxCell id="4zsLI_aO5ENCOFRUtOQV-69" style="edgeStyle=orthogonalEdgeStyle;rounded=0;orthogonalLoop=1;jettySize=auto;html=1;" edge="1" parent="1" source="4zsLI_aO5ENCOFRUtOQV-64" target="4zsLI_aO5ENCOFRUtOQV-68">
          <mxGeometry relative="1" as="geometry" />
        </mxCell>
        <mxCell id="4zsLI_aO5ENCOFRUtOQV-64" value="同步（直接获取检测信息）" style="rounded=0;whiteSpace=wrap;html=1;" vertex="1" parent="1">
          <mxGeometry x="630" y="990" width="120" height="60" as="geometry" />
        </mxCell>
        <mxCell id="4zsLI_aO5ENCOFRUtOQV-70" style="edgeStyle=orthogonalEdgeStyle;rounded=0;orthogonalLoop=1;jettySize=auto;html=1;" edge="1" parent="1" source="4zsLI_aO5ENCOFRUtOQV-65" target="4zsLI_aO5ENCOFRUtOQV-68">
          <mxGeometry relative="1" as="geometry" />
        </mxCell>
        <mxCell id="4zsLI_aO5ENCOFRUtOQV-65" value="异步（渲染线程等待）" style="rounded=0;whiteSpace=wrap;html=1;" vertex="1" parent="1">
          <mxGeometry x="630" y="1080" width="120" height="60" as="geometry" />
        </mxCell>
        <mxCell id="4zsLI_aO5ENCOFRUtOQV-68" value="结果" style="rounded=0;whiteSpace=wrap;html=1;" vertex="1" parent="1">
          <mxGeometry x="827" y="1040" width="120" height="60" as="geometry" />
        </mxCell>
        <mxCell id="4zsLI_aO5ENCOFRUtOQV-74" value="" style="edgeStyle=orthogonalEdgeStyle;rounded=0;orthogonalLoop=1;jettySize=auto;html=1;" edge="1" parent="1" source="4zsLI_aO5ENCOFRUtOQV-71" target="4zsLI_aO5ENCOFRUtOQV-73">
          <mxGeometry relative="1" as="geometry" />
        </mxCell>
        <mxCell id="4zsLI_aO5ENCOFRUtOQV-71" value="一般不需要缩放，检测内部处理" style="rounded=0;whiteSpace=wrap;html=1;" vertex="1" parent="1">
          <mxGeometry x="240" y="1180" width="120" height="60" as="geometry" />
        </mxCell>
        <mxCell id="4zsLI_aO5ENCOFRUtOQV-76" style="edgeStyle=orthogonalEdgeStyle;rounded=0;orthogonalLoop=1;jettySize=auto;html=1;" edge="1" parent="1" source="4zsLI_aO5ENCOFRUtOQV-73" target="4zsLI_aO5ENCOFRUtOQV-75">
          <mxGeometry relative="1" as="geometry" />
        </mxCell>
        <mxCell id="4zsLI_aO5ENCOFRUtOQV-73" value="&lt;span&gt;送入检测接口&lt;/span&gt;" style="rounded=0;whiteSpace=wrap;html=1;" vertex="1" parent="1">
          <mxGeometry x="440" y="1180" width="120" height="60" as="geometry" />
        </mxCell>
        <mxCell id="4zsLI_aO5ENCOFRUtOQV-77" style="edgeStyle=orthogonalEdgeStyle;rounded=0;orthogonalLoop=1;jettySize=auto;html=1;entryX=0.5;entryY=1;entryDx=0;entryDy=0;" edge="1" parent="1" source="4zsLI_aO5ENCOFRUtOQV-75" target="4zsLI_aO5ENCOFRUtOQV-68">
          <mxGeometry relative="1" as="geometry" />
        </mxCell>
        <mxCell id="4zsLI_aO5ENCOFRUtOQV-75" value="异步（渲染线程等待）" style="rounded=0;whiteSpace=wrap;html=1;" vertex="1" parent="1">
          <mxGeometry x="630" y="1180" width="120" height="60" as="geometry" />
        </mxCell>
      </root>
    </mxGraphModel>
  </diagram>
</mxfile>
